<?xml version="1.0" encoding="UTF-8"?>
<!DOCTYPE svg PUBLIC "-//W3C//DTD SVG 1.1//EN" "http://www.w3.org/Graphics/SVG/1.1/DTD/svg11.dtd">
<!-- Creator: CorelDRAW 2020 (64-Bit) -->
<svg xmlns="http://www.w3.org/2000/svg" xml:space="preserve" width="250mm" height="250.004mm" version="1.1" shape-rendering="geometricPrecision" text-rendering="geometricPrecision" image-rendering="optimizeQuality" fill-rule="evenodd" clip-rule="evenodd"
viewBox="0 0 25000 25000.4"
 xmlns:xlink="http://www.w3.org/1999/xlink"
 xmlns:xodm="http://www.corel.com/coreldraw/odm/2003">
 <g id="Layer_x0020_1">
  <metadata id="CorelCorpID_0Corel-Layer"/>
  <g id="_1654103540528">
   <path fill="#0078C1" d="M12500.03 3567.98c4932.15,0 8932.05,3999.98 8932.05,8932.27 0,4932.26 -3999.9,8932.18 -8932.05,8932.18 -4932.21,0 -8932.07,-3999.92 -8932.07,-8932.18 0,-4932.29 3999.86,-8932.27 8932.07,-8932.27l0 0zm0 -3400.73c989.23,0 1951.31,116.83 2873.25,337.03l13.04 1476.46c992.25,271.76 1928.17,679.54 2786,1203.07l1034.16 -1034.24c1467.41,952.92 2719.64,2209.11 3667.48,3680.07l-1006.07 1084.58c536.76,898.08 948.1,1879.54 1209.69,2920.6l1467.9 11.43c187.57,854.96 287.33,1742.8 287.33,2654 0,798.1 -75.9,1578.54 -220.87,2334.53l-1467.88 50.03c-235.74,1055.48 -624.04,2053.32 -1141.23,2969.13l1032.95 1058.57c-937.13,1535.97 -2200.46,2851.19 -3693.95,3849.03l-1038.24 -1026.86c-857.97,540.39 -1796.23,964.95 -2793.15,1250.77l-5.08 1478.04c-962.07,241.08 -1968.69,369.73 -3005.33,369.73 -1056.63,0 -2082.09,-133.22 -3060.95,-383.3l-5.08 -1481c-989.3,-289.42 -1920.41,-714.99 -2771.56,-1255.45l-1037.55 1026.14c-1490.27,-1002.73 -2749.85,-2322.23 -3682.15,-3861.96l1034.18 -1059.88c-506.7,-905.3 -887.84,-1890.12 -1120.54,-2931.11l-1468 -50c-145.18,-756.52 -221.19,-1537.64 -221.19,-2336.41 0,-911.33 99.84,-1799.38 287.46,-2654.4l1467.9 -11.5c258.08,-1026.73 661.9,-1995.57 1187.91,-2883.62l-1007.22 -1085.91c943.25,-1474.84 2191.99,-2735.58 3656.65,-3693.45l1033.55 1033.84c851.28,-523.93 1779.86,-934 2764.66,-1209.42l13.04 -1478.27c938.81,-228.84 1919.67,-350.27 2928.89,-350.27l0 0z"/>
   <path fill="#302E2C" fill-rule="nonzero" d="M12500.03 3735.17c-4832.98,0 -8764.9,3932.02 -8764.9,8765.08 0,4833.03 3931.92,8764.99 8764.9,8764.99 4833.05,0 8764.88,-3931.96 8764.88,-8764.99 0,-4833.06 -3931.83,-8765.08 -8764.88,-8765.08zm0 17864.43c-5017.34,0 -9099.26,-4081.96 -9099.26,-9099.35 0,-5017.5 4081.92,-9099.43 9099.26,-9099.43 5017.36,0 9099.24,4081.93 9099.24,9099.43 0,5017.39 -4081.88,9099.35 -9099.24,9099.35zm-2894.24 2719.66c1866.11,455.5 3859.87,460.87 5732.86,12.94l5.15 -1472.88 120.64 -34.64c967.95,-277.47 1893.32,-691.78 2750.08,-1231.45l112.2 -70.64 1035.1 1023.56c1382.15,-946.49 2575.54,-2190.55 3463.19,-3610.36l-1029.34 -1054.82 61.64 -109.21c516.65,-914.93 894.69,-1898.48 1123.65,-2923.41l28.21 -126.26 1463.01 -49.87c128.39,-712.71 193.46,-1442.69 193.46,-2171.97 0,-835.36 -85.93,-1671.58 -255.58,-2487.81l-1463.07 -11.45 -31.5 -125.37c-254.04,-1010.7 -654.75,-1978.19 -1190.98,-2875.61l-64.39 -107.65 1002.52 -1080.77c-895.99,-1357.83 -2079.15,-2545.59 -3434.23,-3447.55l-1030.88 1031.01 -112.29 -68.54c-854.61,-521.53 -1777.43,-920.07 -2743.05,-1184.56l-121.84 -33.36 -13.03 -1471.37c-1787,-406.31 -3686.75,-401.76 -5470.2,12.7l-12.97 1472.98 -121.03 33.9c-957.34,267.76 -1873.21,668.39 -2722.06,1190.79l-112.49 69.2 -1030.31 -1030.55c-1352.75,906.83 -2532.49,2099.03 -3424.01,3460.25l1003.65 1082.04 -63.62 107.4c-525.58,887.31 -919.1,1842.64 -1169.58,2839.21l-31.54 125.45 -1463.07 11.43c-169.73,816.38 -255.73,1652.8 -255.73,2488.23 0,730.15 65.19,1460.79 193.8,2173.84l1463.2 49.95 28.21 126.19c225.87,1010.62 597.06,1981.52 1103.23,2885.95l61 108.94 -1030.52 1056.08c882.86,1423.14 2072.23,2671.24 3451.97,3622.7l1034.33 -1023 112.48 71.48c848.4,538.64 1766.53,954.59 2728.87,1236.12l119.84 35.04 5.02 1475.72zm2894.24 681.15c-1049.61,0 -2093.4,-130.76 -3102.35,-388.53l-125.32 -32.04 -5.13 -1486.21c-906.52,-276.43 -1773.64,-668.83 -2581.36,-1168.18l-1040.74 1029.29 -113.56 -76.43c-1503.52,-1011.64 -2794,-2365.09 -3731.83,-3914.03l-67.06 -110.76 1037.89 -1063.64c-470.51,-863.37 -822.75,-1784.19 -1048.34,-2740.52l-1472.89 -50.14 -25.13 -131.08c-148.77,-775.22 -224.21,-1571.87 -224.21,-2367.89 0,-904.05 98.02,-1809.15 291.37,-2690.24l28.6 -130.26 1472.76 -11.51c248.73,-942.55 621.91,-1847.85 1110.8,-2694.77l-1010.77 -1089.74 69.66 -108.99c948.99,-1483.94 2230.52,-2778.3 3705.97,-3743.26l113.66 -74.42 1036.81 1037.04c807.34,-483.55 1671.85,-861.51 2573.13,-1124.71l13.12 -1483.46 126.45 -30.77c1913.91,-466.5 3963.05,-471.37 5880.52,-13.51l127.18 30.36 13.25 1481.59c909.24,260.34 1780.84,636.49 2594.13,1119.58l1037.36 -1037.58 113.56 73.76c1477.78,959.59 2763.11,2249.35 3716.97,3729.67l70.21 109.12 -1009.55 1088.4c499.38,857.57 879.88,1775.44 1132.2,2732.09l1472.9 11.5 28.61 130.34c193.14,880.89 291.1,1785.87 291.1,2689.77 0,795.09 -75.24,1591.11 -223.89,2366.02l-25.07 131 -1472.7 50.16c-228.84,970.96 -587.87,1904.48 -1068.74,2778.96l1036.57 1062.37 -67.62 110.81c-943.02,1545.66 -2237.57,2894.58 -3743.9,3900.99l-113.35 75.79 -1041.46 -1030.03c-815.89,500.33 -1690.23,891.52 -2602.63,1164.5l-5.08 1483.2 -126.18 31.64c-992.5,248.67 -2017.37,374.75 -3045.92,374.75z"/>
   <path fill="#82C1E2" d="M12503.44 167.25c988.02,0.27 1948.96,117.09 2869.84,337.03l13.04 1476.46c992.25,271.76 1928.17,679.54 2786,1203.07l1034.16 -1034.24c1467.41,952.92 2719.64,2209.11 3667.48,3680.07l-1006.07 1084.58c536.76,898.08 948.1,1879.54 1209.69,2920.6l1467.9 11.43c187.57,854.96 287.33,1742.8 287.33,2654 0,798.1 -75.9,1578.54 -220.87,2334.53l-1467.88 50.03c-235.74,1055.48 -624.04,2053.32 -1141.23,2969.13l1032.95 1058.57c-937.13,1535.97 -2200.46,2851.19 -3693.95,3849.03l-1038.24 -1026.86c-857.97,540.39 -1796.23,964.95 -2793.15,1250.77l-5.08 1478.04c-961.01,240.79 -1966.49,369.39 -3001.92,369.65l0 -3400.78c4930.54,-1.8 8928.64,-4001.04 8928.64,-8932.11 0,-4931.23 -3998.1,-8930.33 -8928.64,-8932.19l0 -3400.81z"/>
   <path fill="#302E2C" fill-rule="nonzero" d="M12670.63 21597.99l0 3066.85c900.41,-12.57 1796.5,-124.26 2668.02,-332.64l5.15 -1472.88 120.64 -34.64c967.95,-277.47 1893.32,-691.78 2750.08,-1231.45l112.2 -70.64 1035.1 1023.56c1382.15,-946.49 2575.54,-2190.55 3463.19,-3610.36l-1029.34 -1054.82 61.64 -109.21c516.65,-914.93 894.69,-1898.48 1123.65,-2923.41l28.21 -126.26 1463.01 -49.87c128.39,-712.71 193.46,-1442.69 193.46,-2171.97 0,-835.36 -85.93,-1671.58 -255.58,-2487.81l-1463.07 -11.45 -31.5 -125.37c-254.04,-1010.7 -654.75,-1978.19 -1190.98,-2875.61l-64.39 -107.65 1002.52 -1080.77c-895.99,-1357.83 -2079.15,-2545.59 -3434.23,-3447.55l-1030.88 1031.01 -112.29 -68.54c-854.61,-521.53 -1777.43,-920.07 -2743.05,-1184.56l-121.84 -33.36 -13.03 -1471.37c-829,-188.44 -1680.94,-289.76 -2536.69,-301.66l0 3066.92c4938.77,91.09 8928.64,4137.92 8928.64,9097.77 0,4959.83 -3989.87,9006.6 -8928.64,9097.74zm-334.36 3402.42l0 -3735.17 167.11 -0.07c4831.1,-1.73 8761.53,-3933.69 8761.53,-8764.92 0,-4831.26 -3930.43,-8763.22 -8761.53,-8765.02l-167.11 -0.06 0 -3735.16 167.17 0.07c981.94,0.27 1960.54,115.14 2908.64,341.57l127.18 30.36 13.25 1481.59c909.24,260.34 1780.84,636.49 2594.13,1119.58l1037.36 -1037.58 113.56 73.76c1477.78,959.59 2763.11,2249.35 3716.97,3729.67l70.21 109.12 -1009.55 1088.4c499.38,857.57 879.88,1775.44 1132.2,2732.09l1472.9 11.5 28.61 130.34c193.14,880.89 291.1,1785.87 291.1,2689.77 0,795.09 -75.24,1591.11 -223.89,2366.02l-25.07 131 -1472.7 50.16c-228.84,970.96 -587.87,1904.48 -1068.74,2778.96l1036.57 1062.37 -67.62 110.81c-943.02,1545.66 -2237.57,2894.58 -3743.9,3900.99l-113.35 75.79 -1041.46 -1030.03c-815.89,500.33 -1690.23,891.52 -2602.63,1164.5l-5.08 1483.2 -126.18 31.64c-991.3,248.41 -2014.89,374.41 -3042.51,374.65l-167.17 0.1z"/>
   <polygon fill="#EEEFEE" points="13458.58,2613.34 11534.28,2613.34 11233.09,10742 13766.98,10742 13458.58,2613.34 "/>
   <path fill="#302E2C" fill-rule="nonzero" d="M11406.56 10574.81l2186.83 0 -295.71 -7794.3 -1602.24 0 -288.88 7794.3zm2534.08 334.36l-2881.01 0 313.56 -8463.02 2246.39 0 321.06 8463.02z"/>
   <path fill="#302E2C" fill-rule="nonzero" d="M12980.44 10535.37l-162.91 -7955.14 334.23 -6.88 162.9 7955.12 -334.22 6.9zm-960.8 0l-334.29 -6.9 162.89 -7955.12 334.3 6.88 -162.9 7955.14zm647.58 64.25l-334.36 0 0 -7955.11 334.36 0 0 7955.11z"/>
   <path fill="#EEEFEE" d="M12504.12 686.71l795.36 850.47 -12.51 1074.08c-527.67,0 -1055.22,0 -1582.91,0l-3.54 -1074.08 803.6 -850.47 0 0z"/>
   <path fill="#302E2C" fill-rule="nonzero" d="M11870.72 2444.09l1251.01 0 9.84 -841.71 -628.05 -671.65 -635.62 672.79 2.82 840.57zm1581.49 334.36l-1914.71 0 -4.42 -1307.47 971.63 -1028.41 962.76 1029.47 -15.26 1306.41z"/>
   <path fill="#EDEDEF" d="M7918.1 20208.13c1097.02,-4.32 2174.77,-679.2 2765.37,-1555.35l857.03 -12.03 0 -11.51 509.43 4.3 307.21 -4.3 0 6.96 1959.38 16.58c590.6,876.15 1668.44,1551.03 2765.4,1555.35l-717.47 1270.82 -7728.9 0 -717.45 -1270.82 0 0z"/>
   <path fill="#302E2C" fill-rule="nonzero" d="M8733.11 21311.78l7533.78 0 536.84 -950.83c-982.6,-97.17 -1962.67,-679.3 -2575.22,-1541.72l-2038.56 -17.32 0 -3.13 -137.69 1.93 -344.58 -2.88 0 7.77 -935.8 13.08c-612.6,862.8 -1592.74,1445.1 -2575.53,1542.27l536.76 950.83zm7729.04 334.34l-7924.22 0 -905.51 -1604.01 285 -1.15c976.8,-3.87 2032.62,-599.36 2627.38,-1481.67l48.88 -72.48 779.65 -10.9 0 -15.24 678 5.68 473.06 -6.63 0 10.71 1881.61 15.9 49.28 72.96c594.62,882.31 1650.58,1477.8 2627.3,1481.67l285.08 1.15 -905.51 1604.01z"/>
   <path fill="#FFF000" d="M11078.83 11216.57c-549.62,-539.25 -1373.07,-1103.23 -2455.85,-1176.86 0,0 516.11,1108.66 366.79,2008.09 -74.7,449.75 -229.36,1083.76 -352.08,1686.55 -188.65,926.97 -239.86,1770.13 124.84,2587.97 307.08,688.45 834.16,1163.29 1418.55,1601.24 916.14,686.5 1708.9,1035.37 2142.62,1334.63 -1279.92,-1211.32 -3831.93,-3730.22 -1244.87,-8041.62l0 0z"/>
   <path fill="#302E2C" fill-rule="nonzero" d="M8884.45 10236.72c148.71,396.53 382.23,1163.76 270.22,1838.48 -46.33,279.18 -122.3,624.71 -202.68,990.57 -50.63,230.5 -102.98,468.83 -150.47,701.94 -161.95,795.78 -260.33,1647.78 113.68,2486.47 301.4,675.75 834.69,1137.35 1366.11,1535.57 373.88,280.18 726.57,503.06 1043.53,689.99 -1210.3,-1384.05 -2496.23,-3738.98 -457.53,-7233.94 -445.23,-413.4 -1116.89,-875.88 -1982.86,-1009.08zm3344.29 9159.06c-150.85,-104.12 -353.81,-218.33 -588.8,-350.47 -430.45,-242.19 -966.23,-543.66 -1559.1,-987.94 -567.53,-425.23 -1138.48,-921.55 -1470.98,-1666.98 -413.51,-927.15 -300.76,-1879.81 -135.93,-2689.42 47.94,-235.58 100.56,-475.25 151.52,-707.02 79.38,-361.51 154.41,-702.88 199.35,-973.51 139.29,-838.71 -348.4,-1899.54 -353.35,-1910.25l-119.44 -256.51 282.34 19.26c1166.76,79.37 2037.03,709.62 2561.57,1224.35l94.08 92.35 -67.86 113.01c-2557.57,4262.3 -8.57,6674.74 1216.43,7834.14l-209.83 258.99z"/>
   <path fill="#FFF000" d="M8957.6 12001.45c-481.2,-468.51 -1283.52,-1030.35 -2463.01,-1195 0,0 798.45,1209.71 696.01,2546.86 -41.32,540.59 -99.44,1119.36 -113.41,1664.62 -11.17,436.47 3.2,873.87 119.15,1282.4 139.76,492.03 433.88,878.54 804.54,1186.63 450.7,374.67 992.84,625.44 1534.7,821.11 396.27,143.16 1114.4,347.4 1764.99,657.06 345.98,164.78 937.66,294.89 1233.71,544.81l-566.81 -471.24c-451.37,-259.54 -1082.44,-587.64 -1786.39,-1115.14 -584.39,-437.95 -1111.47,-912.79 -1418.55,-1601.24 -364.7,-817.84 -313.49,-1661 -124.84,-2587.97 122.72,-602.79 277.38,-1236.8 352.08,-1686.55 0.87,-5.37 1.59,-10.77 2.47,-16.14 -11.91,-9.42 -23.47,-19.39 -34.64,-30.21l0 0z"/>
   <path fill="#302E2C" fill-rule="nonzero" d="M6817.38 11034.16c238.41,459.34 614.62,1356.47 539.94,2331.86 -10.24,133.95 -21.54,270.16 -32.91,407.72 -34.24,414.26 -69.74,842.71 -80.11,1248.47 -9.63,378.76 -3.88,821.31 112.88,1232.44 118.42,416.87 370.93,788.21 750.55,1103.71 371.95,309.2 843.66,561.05 1484.62,792.5 101.83,36.77 224.74,77.49 367.06,124.57 261.13,86.46 586.92,194.32 920.67,326.13 -250.16,-155.22 -518.32,-333.69 -799.24,-544.19 -567.53,-425.23 -1138.48,-921.55 -1470.98,-1666.98 -413.51,-927.15 -300.76,-1879.81 -135.93,-2689.42 47.94,-235.58 100.56,-475.25 151.52,-707.02 72.42,-329.68 141.18,-642.64 186.84,-900.42 -403.96,-385.59 -1058.57,-852.54 -1994.91,-1059.37zm5610.03 8604.37l-8.76 -7.37c-170.31,-139.21 -473.77,-246.35 -741.6,-340.83 -163.96,-57.9 -318.83,-112.53 -448.3,-174.25 -470.57,-223.96 -971.78,-389.94 -1374.47,-523.22 -144.57,-47.88 -269.43,-89.26 -375.49,-127.53 -678.59,-245 -1182.15,-515.02 -1584.77,-849.86 -432.47,-359.36 -721.28,-786.52 -858.49,-1269.55 -129,-454.25 -135.82,-928.37 -125.45,-1332.2 10.63,-415.33 46.48,-848.58 81.11,-1267.54 11.3,-136.82 22.54,-272.43 32.77,-405.63 96.62,-1261.88 -661.32,-2430.51 -668.96,-2442.07l-202.96 -308.56 365.66 50.97c1236.96,172.65 2072.98,770.02 2556.52,1240.72 6.82,6.62 14.05,12.91 21.53,18.73l76.85 60.66 -17.93 113.94c-46.33,279.44 -122.3,624.91 -202.68,990.75 -50.63,230.52 -102.98,468.91 -150.47,702.02 -161.95,795.78 -260.33,1647.78 113.68,2486.47 301.4,675.75 834.69,1137.35 1366.11,1535.57 575.36,431.11 1100.43,726.63 1522.4,964.03 87.26,49.13 169.79,95.53 247.09,140l23.54 16.32 567.8 472.13 -214.73 256.3z"/>
   <path fill="#FFF000" d="M13906.06 11216.57c549.56,-539.25 1372.94,-1103.23 2455.66,-1176.86 0,0 -516.05,1108.66 -366.73,2008.09 74.7,449.75 229.36,1083.76 352.13,1686.55 188.59,926.97 239.76,1770.13 -124.89,2587.97 -307.01,688.45 -834.16,1163.29 -1418.55,1601.24 -916.2,686.5 -1708.83,1035.37 -2142.62,1334.63 1279.99,-1211.32 3831.93,-3730.22 1245,-8041.62l0 0z"/>
   <path fill="#302E2C" fill-rule="nonzero" d="M14117.51 11245.8c2038.5,3494.62 752.71,5849.82 -457.53,7233.94 316.97,-186.93 669.64,-409.81 1043.52,-689.99 531.5,-398.29 1064.74,-859.96 1366.06,-1535.57 373.94,-838.62 275.71,-1690.69 113.6,-2486.47 -47.41,-232.98 -99.63,-471.18 -150.32,-701.54 -80.45,-366.06 -156.34,-711.71 -202.69,-990.97 -112.07,-674.72 121.45,-1441.95 270.1,-1838.48 -865.78,133.2 -1537.51,595.68 -1982.74,1009.08zm-1361.49 8149.98l-209.78 -258.99c1225.01,-1159.4 3773.95,-3571.84 1216.38,-7834.14l-67.8 -113.01 94.09 -92.35c524.47,-514.73 1394.74,-1144.98 2561.44,-1224.35l281.98 -19.2 -118.95 256.39c-4.96,10.69 -492.23,1073.69 -353.42,1910.31 44.94,270.76 120.04,612.27 199.41,973.9 50.95,231.64 103.59,471.18 151.53,706.63 164.84,809.61 277.51,1762.27 -135.95,2689.42 -332.42,745.3 -903.42,1241.61 -1470.95,1666.98 -592.95,444.22 -1128.66,745.65 -1559.04,987.89 -235.13,132.19 -437.96,246.4 -588.94,350.52z"/>
   <path fill="#FFF000" d="M16027.1 12001.45c481.32,-468.51 1283.65,-1030.35 2463.13,-1195 0,0 -798.38,1209.71 -696.13,2546.86 41.38,540.59 99.5,1119.36 113.47,1664.62 11.24,436.47 -3.2,873.87 -119.23,1282.4 -139.76,492.03 -433.72,878.54 -804.38,1186.63 -450.73,374.67 -992.92,625.44 -1534.63,821.11 -396.42,143.16 -1114.48,347.4 -1765.2,657.06 -345.87,164.78 -937.6,294.89 -1233.58,544.81l566.74 -471.24c451.37,-259.54 1082.44,-587.64 1786.39,-1115.14 584.39,-437.95 1111.54,-912.79 1418.55,-1601.24 364.65,-817.84 313.48,-1661 124.89,-2587.97 -122.77,-602.79 -277.43,-1236.8 -352.13,-1686.55 -0.8,-5.37 -1.6,-10.77 -2.47,-16.14 11.91,-9.42 23.47,-19.39 34.58,-30.21l0 0z"/>
   <path fill="#302E2C" fill-rule="nonzero" d="M16172.6 12093.46c46.01,260.13 114.55,572.21 186.77,900.88 50.95,231.64 103.59,471.18 151.53,706.63 164.84,809.61 277.51,1762.27 -135.95,2689.42 -332.42,745.3 -903.42,1241.61 -1470.95,1666.98 -280.94,210.5 -549.03,388.97 -799.19,544.19 333.75,-131.81 659.48,-239.67 920.54,-326.13 142.38,-47.08 265.28,-87.8 367.13,-124.57 641.02,-231.45 1112.68,-483.3 1484.47,-792.42 379.7,-315.58 632.13,-686.84 750.63,-1103.79 116.76,-411.32 122.64,-853.82 112.95,-1232.44 -10.44,-405.97 -45.95,-834.55 -80.18,-1249.02 -11.37,-137.35 -22.73,-273.36 -32.91,-407.17 -74.68,-975.39 301.61,-1872.52 539.93,-2331.86 -936.33,206.83 -1590.94,673.78 -1994.77,1059.3zm-3615.19 7544.99l-214.71 -256.22 10.29 -8.64 580.97 -479.81c77.3,-44.47 159.83,-90.87 247.09,-140 421.97,-237.4 947.17,-532.84 1522.45,-964.03 531.5,-398.29 1064.74,-859.96 1366.06,-1535.57 373.94,-838.62 275.71,-1690.69 113.6,-2486.47 -47.41,-232.98 -99.63,-471.18 -150.32,-701.54 -80.45,-366.06 -156.34,-711.71 -202.69,-990.97l-18.12 -107.45 77.03 -67.35c7.3,-5.82 14.52,-11.96 21.27,-18.58 483.82,-470.91 1319.97,-1068.28 2556.83,-1240.93l365.65 -51.1 -202.96 308.69c-7.69,11.56 -765.61,1180.19 -668.98,2442.07 10.24,132.99 21.33,268.41 32.7,405.1 34.71,419.07 70.48,852.53 81.19,1268.02 10.35,403.83 3.54,877.87 -125.45,1332.25 -137.3,483.09 -426.1,910.19 -858.5,1269.63 -402.56,334.76 -906.17,604.78 -1584.84,849.78 -106.06,38.33 -230.92,79.65 -375.49,127.53 -402.64,133.36 -903.9,299.26 -1374.53,523.22 -129.41,61.72 -284.28,116.35 -448.24,174.25 -267.83,94.56 -571.29,201.62 -741.55,340.83l-8.75 7.29z"/>
   <path fill="#FFF000" d="M12504.39 9275.84c-4967.92,5750.39 -1358.15,8861.31 -1.54,10151.92 1293.34,-1176 4969.46,-4401.53 1.54,-10151.92l0 0z"/>
   <path fill="#302E2C" fill-rule="nonzero" d="M12504.39 9533.24c-1943.62,2301.1 -2699.34,4423.99 -2245.88,6311.55 382.85,1593.54 1545.66,2692.44 2240.38,3348.91l6.29 6.03c658.75,-599.85 1789.81,-1669.71 2199.54,-3230.02 509.22,-1939.2 -230.92,-4103.95 -2200.33,-6436.47zm-4.08 10122.82l-231.1 -219.35c-1443.76,-1364.37 -4824.91,-4559.54 108.73,-10270.21l126.45 -146.37 126.51 146.37c2140.41,2477.52 2946.95,4795.02 2397.2,6888.13 -450.18,1714.33 -1698.8,2848.4 -2369.64,3457.66l-158.15 143.77z"/>
   <path fill="#302E2C" fill-rule="nonzero" d="M12667.22 21324.23l-334.36 0 0 -1865.1 334.36 0 0 1865.1zm-2208.03 187.51l-544.93 -1139.82 143.64 -74.57c878.35,-455.39 1524.34,-1294.57 1530.74,-1302.97l266.08 202.47c-26.61,34.97 -629.99,820.24 -1500.71,1319.76l406.84 850.94 -301.66 144.19zm4081.62 0l-301.72 -144.19 406.85 -850.94c-870.73,-499.52 -1474.05,-1284.79 -1500.53,-1319.76l266.02 -202.47c6.41,8.4 652.4,847.58 1530.61,1302.97l143.78 74.57 -545.01 1139.82z"/>
  </g>
 </g>
</svg>
